<svg width="50" height="52" viewBox="0 0 50 52" fill="none" xmlns="http://www.w3.org/2000/svg">
<path d="M24.7304 0.949343C19.7316 0.875295 14.531 1.8264 10.2969 4.6152C6.64674 7.01933 4.02217 10.5107 2.4958 14.5848C-0.465033 22.4878 1.06008 31.9037 5.19006 39.1022C9.50061 46.6154 17.3275 52.0246 26.2407 51.2732C31.9305 50.7935 37.4295 48.3684 41.5777 44.4424C45.9734 40.2822 48.557 34.5856 48.9841 28.5695C49.8474 16.4101 41.5595 4.98695 29.8445 1.82514C28.172 1.37376 26.454 1.10795 24.7304 0.949343C23.623 0.847446 22.6742 1.96733 22.6742 3.00554C22.6742 4.20247 23.6199 4.95955 24.7304 5.06175C30.2026 5.5653 35.3279 7.96768 39.0744 11.9961C40.0527 13.0479 40.5497 13.6858 41.3281 14.8912C42.024 15.9686 42.63 17.1009 43.1499 18.2732C43.3087 18.6312 42.9759 17.8341 43.2251 18.4491C43.2769 18.5769 43.3277 18.7051 43.3774 18.8336C43.489 19.1227 43.5949 19.414 43.6955 19.7071C43.9185 20.3572 44.1139 21.0166 44.2811 21.6832C44.6162 23.0195 44.77 23.9954 44.8559 25.0863C44.958 26.3811 44.9543 27.6846 44.8391 28.9784C44.8279 29.1042 44.7274 29.9635 44.7705 29.6551C44.7326 29.9264 44.6875 30.1969 44.6386 30.4665C44.5161 31.1423 44.3623 31.8127 44.1775 32.4742C43.5203 34.8263 42.3407 37.2055 40.9206 39.0631C39.1952 41.32 37.0894 43.1948 34.6505 44.5117C32.6396 45.5974 30.7453 46.329 28.2859 46.8492C28.0046 46.9087 27.7221 46.9628 27.4387 47.0113C27.272 47.0398 26.6897 47.1238 27.1486 47.0637C26.6041 47.135 26.0562 47.1834 25.5077 47.2092C24.5063 47.2563 23.5106 47.2141 22.5139 47.1142C21.9055 47.0532 22.7205 47.166 22.2255 47.0737C22.0016 47.032 21.7765 46.9977 21.553 46.9532C21.0623 46.8555 20.5756 46.7373 20.0947 46.5991C19.6667 46.476 19.2432 46.3371 18.8255 46.1829C18.6176 46.1061 18.4122 46.0239 18.2067 45.9414C17.916 45.8247 18.6665 46.1523 18.2238 45.9462C18.0905 45.8842 17.9558 45.8253 17.8228 45.7625C16.9823 45.3653 16.1717 44.9054 15.397 44.3917C15.0293 44.1479 14.6713 43.8906 14.3189 43.6253C14.679 43.8964 14.3029 43.6103 14.1564 43.4907C13.9467 43.3194 13.7402 43.144 13.537 42.965C12.8301 42.3422 12.1636 41.6743 11.5381 40.97C11.2389 40.6331 10.9545 40.2851 10.6697 39.9361C10.3649 39.5626 10.8292 40.1676 10.4861 39.6951C10.338 39.4911 10.1884 39.2883 10.044 39.0817C8.93335 37.4932 8.00233 35.7855 7.23686 34.0058C7.44947 34.5001 7.1684 33.8306 7.12191 33.7128C7.03693 33.4976 6.95442 33.2813 6.87446 33.0641C6.69665 32.5812 6.53121 32.0936 6.37826 31.6022C6.08784 30.6691 5.8424 29.722 5.64352 28.7652C5.54959 28.3133 5.46605 27.8593 5.39315 27.4035C5.37573 27.2947 5.27992 26.6221 5.31891 26.9177C5.36489 27.2661 5.30129 26.7643 5.29804 26.7349C5.28118 26.5829 5.26354 26.4309 5.2481 26.2787C5.15346 25.3457 5.10416 24.408 5.1033 23.4702C5.10243 22.5192 5.15127 21.5681 5.25413 20.6227C5.26911 20.485 5.37048 19.7671 5.28243 20.3577C5.3152 20.1379 5.3482 19.9182 5.38565 19.6991C5.46423 19.2393 5.55616 18.7818 5.66233 18.3275C5.8724 17.4287 6.13746 16.5425 6.46131 15.6781C6.5459 15.4523 6.63502 15.2284 6.72701 15.0056C6.55267 15.4279 6.72396 15.0206 6.80889 14.8359C7.00925 14.4001 7.2257 13.9716 7.45846 13.5522C7.66767 13.1752 7.88997 12.8055 8.12533 12.4442C8.2562 12.2434 8.39108 12.0451 8.52993 11.8497C8.61959 11.7235 9.07143 11.1412 8.72646 11.5735C9.3023 10.8519 9.92421 10.1713 10.6046 9.54668C10.9327 9.24555 11.2729 8.95841 11.6227 8.68284C11.1998 9.01606 11.7664 8.58316 11.8701 8.50961C12.098 8.3479 12.3297 8.19158 12.5651 8.0409C13.3863 7.51515 14.2492 7.06718 15.1392 6.67024C15.4415 6.5354 14.6783 6.84932 15.1763 6.65574C15.2791 6.61577 15.3812 6.5742 15.4842 6.53472C15.7452 6.43464 16.0084 6.33997 16.2732 6.25047C16.7921 6.07513 17.3179 5.9206 17.8485 5.78479C18.3727 5.65061 18.9015 5.53523 19.4336 5.43705C19.7085 5.38634 19.9841 5.34152 20.2603 5.29853C20.6657 5.2354 20.3618 5.28219 20.2777 5.29323C20.4688 5.26816 20.6603 5.24607 20.8519 5.22548C22.1402 5.08702 23.4353 5.04256 24.7304 5.06175C27.3776 5.10096 27.3786 0.988575 24.7304 0.949343Z" fill="#021526"/>
<path d="M21.9167 16.0616C22.5007 22.503 22.9181 28.9578 23.1686 35.4207C23.2709 38.0585 27.3838 38.0717 27.281 35.4207C27.0305 28.9578 26.6131 22.503 26.0291 16.0616C25.9289 14.9556 25.1559 14.0054 23.9729 14.0054C22.9384 14.0054 21.8159 14.9491 21.9167 16.0616Z" fill="#021526"/>
<path d="M18.0615 30.6993C19.0568 31.7438 20.0521 32.7883 21.0474 33.8328C21.5054 34.3134 21.9675 34.7906 22.4186 35.2779C22.6262 35.5022 22.8314 35.729 23.0295 35.9617C23.1482 36.1011 23.2657 36.2419 23.3785 36.3861C23.159 36.1055 23.4297 36.469 23.4926 36.5588C23.9189 37.1665 24.4965 37.5772 25.2681 37.5772C25.9223 37.5772 26.7688 37.2007 27.0436 36.5588C27.5687 35.3321 28.1922 34.1514 28.9197 33.0324C29.0934 32.7651 29.2731 32.5016 29.458 32.2419C29.542 32.1238 29.6271 32.0065 29.7133 31.89C29.7979 31.7759 30.0386 31.4751 29.8144 31.7537C30.2511 31.211 30.7025 30.6843 31.1808 30.1776C31.9196 29.3951 32.0153 28.0357 31.1808 27.2697C30.3795 26.5341 29.0616 26.4342 28.2729 27.2697C26.2811 29.3796 24.6353 31.8141 23.4927 34.4832H27.0436C26.17 33.2377 25.125 32.1524 24.0788 31.0546C23.0424 29.9668 22.0059 28.8791 20.9694 27.7914C20.2259 27.0111 18.8004 26.9866 18.0615 27.7914C17.293 28.6286 17.2682 29.8669 18.0615 30.6993Z" fill="#021526"/>
</svg>
